HIERARCHY
ROOT ui
{
	 OFFSET 0 0 0
	 CHANNELS 3 XPosition YPosition Z Position
	 EndSite
	 {
	 OFFSET 0 -1 0
	 }
}
ROOT li
{
	 OFFSET 0 0 0
	 CHANNELS 3 XPosition YPosition Z Position
	 EndSite
	 {
	 OFFSET 0 -1 0
	 }
}
ROOT ul
{
	 OFFSET 0 0 0
	 CHANNELS 3 XPosition YPosition Z Position
	 EndSite
	 {
	 OFFSET 0 -1 0
	 }
}
ROOT ll
{
	 OFFSET 0 0 0
	 CHANNELS 3 XPosition YPosition Z Position
	 EndSite
	 {
	 OFFSET 0 -1 0
	 }
}
ROOT tt
{
	 OFFSET 0 0 0
	 CHANNELS 3 XPosition YPosition Z Position
	 EndSite
	 {
	 OFFSET 0 -1 0
	 }
}
ROOT tb
{
	 OFFSET 0 0 0
	 CHANNELS 3 XPosition YPosition Z Position
	 EndSite
	 {
	 OFFSET 0 -1 0
	 }
}
ROOT td
{
	 OFFSET 0 0 0
	 CHANNELS 3 XPosition YPosition Z Position
	 EndSite
	 {
	 OFFSET 0 -1 0
	 }
}
ROOT v
{
	 OFFSET 0 0 0
	 CHANNELS 3 XPosition YPosition Z Position
	 EndSite
	 {
	 OFFSET 0 -1 0
	 }
}
ROOT bn
{
	 OFFSET 0 0 0
	 CHANNELS 3 XPosition YPosition Z Position
	 EndSite
	 {
	 OFFSET 0 -1 0
	 }
}
MOTION
Frames: 29
Frame Time: 0.002
-0.006611863136291504	7.007099688053131E-5	0		0.4333656921386719	-2.358811279296875	0		-1.1487119140625	-0.13369265747070314	0		-0.8726145629882812	-2.39106884765625	0		1.50352587890625	-0.48012591552734374	0		3.013148193359375	0.14493858337402343	0		4.599298828125	0.18224429321289062	0		5.577115234375	0.1253850555419922	0		-0.1388933868408203	5.9652275390625	0		
-0.005838057994842529	-1.0705199837684631E-4	0		0.4710517883300781	-2.36875	0		-1.143869140625	-0.13100920104980468	0		-0.8578157348632812	-2.395582763671875	0		1.504322265625	-0.48023171997070313	0		2.9882177734375	0.15945216369628906	0		4.60831689453125	0.1941124267578125	0		5.58404736328125	0.12000918579101562	0		-0.1241712875366211	5.9757451171875	0		
0.0020133109092712403	0.006570218086242675	0		0.44122479248046875	-2.352246337890625	0		-1.1760654296875	-0.12654430389404298	0		-0.8888314819335937	-2.388124755859375	0		1.5122197265625	-0.47247637939453124	0		3.002741943359375	0.15113996887207032	0		4.60901171875	0.1941785125732422	0		5.58751611328125	0.13216477966308593	0		-0.25621197509765625	5.9563623046875	0		
0.002648514986038208	0.006405227184295655	0		0.4679223327636719	-2.3559345703125	0		-1.1384310302734375	-0.1275553741455078	0		-0.8968499755859375	-2.37815185546875	0		1.508798095703125	-0.47647198486328124	0		3.013493408203125	0.15692987060546876	0		4.6055107421875	0.18835586547851563	0		5.58802294921875	0.13759884643554687	0		-0.12347350311279297	5.9753935546875	0		
-8.480899930000305E-4	0.003335453987121582	0		0.4406336669921875	-2.35547265625	0		-1.1547275390625	-0.12142108154296875	0		-0.8971853637695313	-2.380338134765625	0		1.5063087158203126	-0.48047360229492186	0		2.999074462890625	0.15826840209960938	0		4.6012138671875	0.1955767364501953	0		5.577904296875	0.1574656524658203	0		-0.12326039886474609	5.9752314453125	0		
-3.523739874362946E-4	0.003192425012588501	0		0.48228744506835936	-2.355448486328125	0		-1.148330322265625	-0.12676031494140624	0		-0.9280316162109375	-2.355870849609375	0		1.50683447265625	-0.4805232849121094	0		2.9804599609375	0.1537107696533203	0		4.6065498046875	0.18861546325683592	0		5.58997021484375	0.10876101684570312	0		-0.12313459777832031	5.9750810546875	0		
-0.027983476638793945	6.476240158081054E-4	0		0.41492083740234376	-2.352126953125	0		-1.1779735107421876	-0.13033668518066407	0		-0.8820503540039063	-2.385016845703125	0		1.507291015625	-0.4805575256347656	0		2.990580810546875	0.13956497192382813	0		4.60494287109375	0.18782197570800782	0		5.5861103515625	0.12147038269042969	0		-0.12211310577392578	5.97392138671875	0		
0.014280902862548827	-0.004347725868225098	0		0.47916732788085936	-2.36555029296875	0		-1.1334925537109375	-0.12545098876953126	0		-0.9113435668945312	-2.375570068359375	0		1.51792724609375	-0.4687891235351562	0		3.0194228515625	0.16305245971679688	0		4.614556640625	0.20081327819824218	0		5.596462890625	0.13348918151855468	0		-0.25361807250976565	5.9525302734375	0		
-0.021211606979370117	0.006291570186614991	0		0.4448708190917969	-2.35290185546875	0		-1.13625439453125	-0.12856971740722656	0		-0.8478060302734375	-2.37204736328125	0		1.5110848388671876	-0.4766500244140625	0		2.970610595703125	0.15916191101074217	0		4.60687841796875	0.20317381286621095	0		5.58659423828125	0.12232466125488281	0		-0.1364714050292969	5.96297216796875	0		
9.527879953384399E-4	0.002738714933395386	0		0.49303765869140626	-2.36396142578125	0		-1.140096435546875	-0.13265614318847657	0		-0.9179495849609375	-2.34873291015625	0		1.5082652587890626	-0.48058544921875	0		2.996701904296875	0.15272090148925782	0		4.60295263671875	0.19646054077148437	0		5.5868134765625	0.12796469116210937	0		-0.1233807601928711	5.97459521484375	0		
-0.014072055816650391	-0.007035645008087158	0		0.43943966674804685	-2.359902099609375	0		-1.079736328125	-0.12505561828613282	0		-0.85119384765625	-2.377255126953125	0		1.503619873046875	-0.4734743347167969	0		2.96689794921875	0.1544439392089844	0		4.5931416015625	0.19787245178222657	0		5.58348828125	0.14070573425292968	0		-0.13780520629882811	5.96379248046875	0		
-0.0018161679506301879	-0.0013619680404663085	0		0.47652493286132813	-2.369712158203125	0		-1.1726773681640625	-0.1282828369140625	0		-0.9078611450195313	-2.3742109375	0		1.5086380615234376	-0.48056121826171877	0		3.008137939453125	0.1597023620605469	0		4.61221875	0.1956846923828125	0		5.58701220703125	0.123678466796875	0		-0.2552567138671875	5.9541181640625	0		
0.005426982879638672	0.00542416000366211	0		0.4549107055664062	-2.362302978515625	0		-1.1325159912109375	-0.1262408676147461	0		-0.8337006225585938	-2.3788505859375	0		1.5087666015625	-0.48054281616210937	0		2.97197021484375	0.1475490264892578	0		4.602310546875	0.1960872802734375	0		5.583673828125	0.14158302307128906	0		-0.25549908447265623	5.95403515625	0		
0.03723160171508789	-0.008288382530212402	0		0.47900836181640627	-2.367829345703125	0		-1.1354921875	-0.12930010986328125	0		-0.878239501953125	-2.366036865234375	0		1.508870361328125	-0.4805218811035156	0		3.008298583984375	0.1599089050292969	0		4.60339794921875	0.19725418090820312	0		5.58306787109375	0.1472158203125	0		-0.12331915283203125	5.97325341796875	0		
0.0015066930055618287	0.002394613027572632	0		0.47037557983398437	-2.358675537109375	0		-1.063478759765625	-0.1328794403076172	0		-0.8746502075195313	-2.346198486328125	0		1.505876220703125	-0.4844363098144531	0		2.9713408203125	0.159763427734375	0		4.60759326171875	0.20434944152832032	0		5.5943408203125	0.12455168151855468	0		-0.12355543518066406	5.97319482421875	0		
-0.004582602024078369	-0.004525296211242676	0		0.4664358825683594	-2.36361474609375	0		-1.17235693359375	-0.12875131225585937	0		-0.9124815063476562	-2.345508056640625	0		1.5000947265625	-0.4772895202636719	0		2.997258056640625	0.15332858276367187	0		4.60835009765625	0.19050149536132813	0		5.5808798828125	0.13077667236328125	0		-0.1237796401977539	5.9731455078125	0		
0.012396419525146484	-0.007905022144317627	0		0.45150054931640626	-2.36732373046875	0		-1.1353157958984375	-0.12958761596679688	0		-0.8689586181640625	-2.3764697265625	0		1.5060146484375	-0.4843813171386719	0		2.98115576171875	0.14674728393554687	0		4.6025087890625	0.196781982421875	0		5.5872919921875	0.1256122817993164	0		-0.25544888305664065	5.951775390625	0		
0.005697237014770508	0.005211489200592041	0		0.4557252502441406	-2.362412353515625	0		-1.15417041015625	-0.1242689208984375	0		-0.8966051635742187	-2.36495947265625	0		1.5091485595703125	-0.4804098815917969	0		3.02054296875	0.16404035949707033	0		4.60565771484375	0.2028692169189453	0		5.5902763671875	0.13789653015136719	0		-0.2536781311035156	5.9497021484375	0		
0.00878350830078125	0.008140134811401366	0		0.4988812255859375	-2.360279541015625	0		-1.1240447998046874	-0.11992608642578124	0		-0.8734247436523438	-2.361466064453125	0		1.50433349609375	-0.47327044677734376	0		2.9673720703125	0.15520587158203125	0		4.60357666015625	0.19805220031738283	0		5.59034375	0.1433817443847656	0		-0.13856724548339844	5.962349609375	0		
0.0016780799627304076	0.0022881999015808108	0		0.4429952697753906	-2.358127197265625	0		-1.1681593017578125	-0.1260613784790039	0		-0.9058903198242187	-2.33882275390625	0		1.50028173828125	-0.4771407165527344	0		2.982379150390625	0.1549921112060547	0		4.59360791015625	0.19939102172851564	0		5.5809873046875	0.13201080322265624	0		-0.13872305297851562	5.9623505859375	0		
-0.023317161560058593	0.0028141629695892334	0		0.49288119506835937	-2.36710498046875	0		-1.135223876953125	-0.12973609924316407	0		-0.9078729858398438	-2.34078369140625	0		1.500293212890625	-0.4770831604003906	0		2.967378173828125	0.15538943481445314	0		4.5936025390625	0.1995248565673828	0		5.58512451171875	0.11477468109130859	0		-0.12465087890625	5.97308251953125	0		
-0.023335237503051758	0.0028494670391082766	0		0.45190045166015624	-2.367230712890625	0		-1.198004150390625	-0.11745388793945312	0		-0.9004094848632812	-2.368922607421875	0		1.5002850341796874	-0.47701626586914064	0		3.0084697265625	0.16065760803222656	0		4.6025380859375	0.197474609375	0		5.58735546875	0.12703691864013672	0		-0.25625076293945315	5.95176611328125	0		
0.0016246479749679565	0.002394503116607666	0		0.47989956665039063	-2.36773828125	0		-1.16106494140625	-0.11917052459716797	0		-0.871208740234375	-2.35947509765625	0		1.5002581787109375	-0.4769411926269531	0		2.97141943359375	0.16050479125976563	0		4.60766064453125	0.20549932861328124	0		5.59446435546875	0.12693431091308593	0		-0.25734524536132813	5.95383154296875	0		
0.005636559963226318	0.00537530517578125	0		0.4451120300292969	-2.35596630859375	0		-1.1241185302734376	-0.119869873046875	0		-0.901735107421875	-2.33480419921875	0		1.5002166748046875	-0.47685931396484377	0		2.996485595703125	0.16610076904296875	0		4.59761181640625	0.20582386779785156	0		5.59029736328125	0.14467349243164063	0		-0.1240751953125	5.9722041015625	0		
0.012317923545837403	-0.007691379070281982	0		0.49286972045898436	-2.36685546875	0		-1.1241724853515624	-0.11980970764160156	0		-0.8732962036132812	-2.361321044921875	0		1.5001663818359374	-0.4767722473144531	0		2.971312744140625	0.160708251953125	0		4.60341259765625	0.19882321166992187	0		5.587306640625	0.13292724609375	0		-0.1251712417602539	5.97329443359375	0		
0.0014633560180664063	0.0026068320274353026	0		0.44096142578125	-2.3597265625	0		-1.1242298583984376	-0.11973999786376953	0		-0.8699537963867188	-2.342313720703125	0		1.4908719482421875	-0.4884981689453125	0		2.96229541015625	0.16299102783203126	0		4.59749462890625	0.20605735778808593	0		5.5872236328125	0.12794901275634765	0		-0.1394952392578125	5.96265625	0		
-0.00473518180847168	-0.004188062191009522	0		0.44973294067382813	-2.36882080078125	0		-1.1484844970703125	-0.12917813110351561	0		-0.8984971313476563	-2.366666748046875	0		1.496975830078125	-0.4805293579101563	0		2.976051513671875	0.15381048583984375	0		4.60227294921875	0.19806712341308594	0		5.58718212890625	0.12814622497558595	0		-0.28898046875	5.9447431640625	0		
0.01520335578918457	-0.004505741119384766	0		0.42988943481445313	-2.358333251953125	0		-1.1773946533203126	-0.12151464080810546	0		-0.8564740600585937	-2.363431396484375	0		1.5000001220703125	-0.47650015258789064	0		2.98947412109375	0.17763960266113282	0		4.6053349609375	0.2041070861816406	0		5.59009423828125	0.14029582214355468	0		-0.122529052734375	5.96947900390625	0		
0.0053515548706054685	0.005779387950897216	0		0.446955810546875	-2.35259033203125	0		-1.144536865234375	-0.12609458923339845	0		-0.9053338623046875	-2.3533623046875	0		1.4999456787109375	-0.47641171264648435	0		2.971080078125	0.1610965576171875	0		4.6024609375	0.21325961303710939	0		5.5912802734375	0.11617637634277343	0		-0.13975245666503905	5.96190869140625	0		
